ISO-10303-21;
HEADER;
FILE_DESCRIPTION(('KiCad 3D model'),'2;1');
FILE_NAME('Relay_SPDT_Axicom_W11_V23101','2026-10-08T00:00:00',(''),(''),'','','');
FILE_SCHEMA(('AUTOMOTIVE_DESIGN { 1 0 10303 214 1 1 1 1 }'));
ENDSEC;
DATA;
#1 = APPLICATION_CONTEXT('core data for automotive mechanical design processes');
#2 = APPLICATION_PROTOCOL_DEFINITION('international standard','automotive_design',2000,#1);
#3 = PRODUCT_CONTEXT('',#1,'mechanical');
#4 = PRODUCT('Relay_SPDT_Axicom_W11_V23101','Relay_SPDT_Axicom_W11_V23101','',(#3));
#5 = PRODUCT_RELATED_PRODUCT_CATEGORY('part',$,(#4));
#6 = PRODUCT_DEFINITION_FORMATION('','',#4);
#7 = PRODUCT_DEFINITION_CONTEXT('part definition',#1,'design');
#8 = PRODUCT_DEFINITION('design','',#6,#7);
#9 = PRODUCT_DEFINITION_SHAPE('','',#8);
#10 = ( LENGTH_UNIT() NAMED_UNIT(*) SI_UNIT(.MILLI.,.METRE.) );
#11 = ( NAMED_UNIT(*) PLANE_ANGLE_UNIT() SI_UNIT($,.RADIAN.) );
#12 = ( NAMED_UNIT(*) SI_UNIT($,.STERADIAN.) SOLID_ANGLE_UNIT() );
#13 = UNCERTAINTY_MEASURE_WITH_UNIT(LENGTH_MEASURE(1.E-07),#10,'distance_accuracy_value','confusion accuracy');
#14 = ( GEOMETRIC_REPRESENTATION_CONTEXT(3) GLOBAL_UNCERTAINTY_ASSIGNED_CONTEXT((#13)) GLOBAL_UNIT_ASSIGNED_CONTEXT((#10,#11,#12)) REPRESENTATION_CONTEXT('Context #1','3D Context with UNIT and UNCERTAINTY') );
#15 = CARTESIAN_POINT('',(0.,0.,0.));
#16 = DIRECTION('',(0.,0.,1.));
#17 = DIRECTION('',(1.,0.,0.));
#18 = AXIS2_PLACEMENT_3D('',#15,#16,#17);
#19 = CARTESIAN_POINT('',(-1.4,-9.06,0.2));
#20 = VERTEX_POINT('',#19);
#21 = CARTESIAN_POINT('',(-1.4,-9.06,11.5));
#22 = VERTEX_POINT('',#21);
#23 = CARTESIAN_POINT('',(-1.4,1.44,0.2));
#24 = VERTEX_POINT('',#23);
#25 = CARTESIAN_POINT('',(-1.4,1.44,11.5));
#26 = VERTEX_POINT('',#25);
#27 = CARTESIAN_POINT('',(14.1,-9.06,0.2));
#28 = VERTEX_POINT('',#27);
#29 = CARTESIAN_POINT('',(14.1,-9.06,11.5));
#30 = VERTEX_POINT('',#29);
#31 = CARTESIAN_POINT('',(14.1,1.44,0.2));
#32 = VERTEX_POINT('',#31);
#33 = CARTESIAN_POINT('',(14.1,1.44,11.5));
#34 = VERTEX_POINT('',#33);
#35 = DIRECTION('',(1.,0.,0.));
#36 = VECTOR('',#35,15.5);
#37 = CARTESIAN_POINT('',(-1.4,-9.06,11.5));
#38 = LINE('',#37,#36);
#39 = EDGE_CURVE('',#22,#30,#38,.T.);
#40 = ORIENTED_EDGE('',*,*,#39,.T.);
#41 = DIRECTION('',(0.,1.,0.));
#42 = VECTOR('',#41,10.5);
#43 = CARTESIAN_POINT('',(14.1,-9.06,11.5));
#44 = LINE('',#43,#42);
#45 = EDGE_CURVE('',#30,#34,#44,.T.);
#46 = ORIENTED_EDGE('',*,*,#45,.T.);
#47 = DIRECTION('',(1.,0.,0.));
#48 = VECTOR('',#47,15.5);
#49 = CARTESIAN_POINT('',(-1.4,1.44,11.5));
#50 = LINE('',#49,#48);
#51 = EDGE_CURVE('',#26,#34,#50,.T.);
#52 = ORIENTED_EDGE('',*,*,#51,.F.);
#53 = DIRECTION('',(0.,1.,0.));
#54 = VECTOR('',#53,10.5);
#55 = CARTESIAN_POINT('',(-1.4,-9.06,11.5));
#56 = LINE('',#55,#54);
#57 = EDGE_CURVE('',#22,#26,#56,.T.);
#58 = ORIENTED_EDGE('',*,*,#57,.F.);
#59 = EDGE_LOOP('',(#40,#46,#52,#58));
#60 = FACE_OUTER_BOUND('',#59,.T.);
#61 = CARTESIAN_POINT('',(-1.4,-9.06,11.5));
#62 = DIRECTION('',(0.,0.,1.));
#63 = DIRECTION('',(1.,0.,0.));
#64 = AXIS2_PLACEMENT_3D('',#61,#62,#63);
#65 = PLANE('',#64);
#66 = ADVANCED_FACE('',(#60),#65,.T.);
#67 = DIRECTION('',(0.,1.,0.));
#68 = VECTOR('',#67,10.5);
#69 = CARTESIAN_POINT('',(-1.4,-9.06,0.2));
#70 = LINE('',#69,#68);
#71 = EDGE_CURVE('',#20,#24,#70,.T.);
#72 = ORIENTED_EDGE('',*,*,#71,.T.);
#73 = DIRECTION('',(1.,0.,0.));
#74 = VECTOR('',#73,15.5);
#75 = CARTESIAN_POINT('',(-1.4,1.44,0.2));
#76 = LINE('',#75,#74);
#77 = EDGE_CURVE('',#24,#32,#76,.T.);
#78 = ORIENTED_EDGE('',*,*,#77,.T.);
#79 = DIRECTION('',(0.,1.,0.));
#80 = VECTOR('',#79,10.5);
#81 = CARTESIAN_POINT('',(14.1,-9.06,0.2));
#82 = LINE('',#81,#80);
#83 = EDGE_CURVE('',#28,#32,#82,.T.);
#84 = ORIENTED_EDGE('',*,*,#83,.F.);
#85 = DIRECTION('',(1.,0.,0.));
#86 = VECTOR('',#85,15.5);
#87 = CARTESIAN_POINT('',(-1.4,-9.06,0.2));
#88 = LINE('',#87,#86);
#89 = EDGE_CURVE('',#20,#28,#88,.T.);
#90 = ORIENTED_EDGE('',*,*,#89,.F.);
#91 = EDGE_LOOP('',(#72,#78,#84,#90));
#92 = FACE_OUTER_BOUND('',#91,.T.);
#93 = CARTESIAN_POINT('',(-1.4,-9.06,0.2));
#94 = DIRECTION('',(0.,0.,-1.));
#95 = DIRECTION('',(1.,0.,0.));
#96 = AXIS2_PLACEMENT_3D('',#93,#94,#95);
#97 = PLANE('',#96);
#98 = ADVANCED_FACE('',(#92),#97,.T.);
#99 = ORIENTED_EDGE('',*,*,#83,.T.);
#100 = DIRECTION('',(0.,0.,1.));
#101 = VECTOR('',#100,11.3);
#102 = CARTESIAN_POINT('',(14.1,1.44,0.2));
#103 = LINE('',#102,#101);
#104 = EDGE_CURVE('',#32,#34,#103,.T.);
#105 = ORIENTED_EDGE('',*,*,#104,.T.);
#106 = ORIENTED_EDGE('',*,*,#45,.F.);
#107 = DIRECTION('',(0.,0.,1.));
#108 = VECTOR('',#107,11.3);
#109 = CARTESIAN_POINT('',(14.1,-9.06,0.2));
#110 = LINE('',#109,#108);
#111 = EDGE_CURVE('',#28,#30,#110,.T.);
#112 = ORIENTED_EDGE('',*,*,#111,.F.);
#113 = EDGE_LOOP('',(#99,#105,#106,#112));
#114 = FACE_OUTER_BOUND('',#113,.T.);
#115 = CARTESIAN_POINT('',(14.1,-9.06,0.2));
#116 = DIRECTION('',(1.,0.,0.));
#117 = DIRECTION('',(0.,1.,0.));
#118 = AXIS2_PLACEMENT_3D('',#115,#116,#117);
#119 = PLANE('',#118);
#120 = ADVANCED_FACE('',(#114),#119,.T.);
#121 = DIRECTION('',(0.,0.,1.));
#122 = VECTOR('',#121,11.3);
#123 = CARTESIAN_POINT('',(-1.4,-9.06,0.2));
#124 = LINE('',#123,#122);
#125 = EDGE_CURVE('',#20,#22,#124,.T.);
#126 = ORIENTED_EDGE('',*,*,#125,.T.);
#127 = ORIENTED_EDGE('',*,*,#57,.T.);
#128 = DIRECTION('',(0.,0.,1.));
#129 = VECTOR('',#128,11.3);
#130 = CARTESIAN_POINT('',(-1.4,1.44,0.2));
#131 = LINE('',#130,#129);
#132 = EDGE_CURVE('',#24,#26,#131,.T.);
#133 = ORIENTED_EDGE('',*,*,#132,.F.);
#134 = ORIENTED_EDGE('',*,*,#71,.F.);
#135 = EDGE_LOOP('',(#126,#127,#133,#134));
#136 = FACE_OUTER_BOUND('',#135,.T.);
#137 = CARTESIAN_POINT('',(-1.4,-9.06,0.2));
#138 = DIRECTION('',(-1.,0.,0.));
#139 = DIRECTION('',(0.,1.,0.));
#140 = AXIS2_PLACEMENT_3D('',#137,#138,#139);
#141 = PLANE('',#140);
#142 = ADVANCED_FACE('',(#136),#141,.T.);
#143 = ORIENTED_EDGE('',*,*,#132,.T.);
#144 = ORIENTED_EDGE('',*,*,#51,.T.);
#145 = ORIENTED_EDGE('',*,*,#104,.F.);
#146 = ORIENTED_EDGE('',*,*,#77,.F.);
#147 = EDGE_LOOP('',(#143,#144,#145,#146));
#148 = FACE_OUTER_BOUND('',#147,.T.);
#149 = CARTESIAN_POINT('',(-1.4,1.44,0.2));
#150 = DIRECTION('',(0.,1.,0.));
#151 = DIRECTION('',(1.,0.,0.));
#152 = AXIS2_PLACEMENT_3D('',#149,#150,#151);
#153 = PLANE('',#152);
#154 = ADVANCED_FACE('',(#148),#153,.T.);
#155 = ORIENTED_EDGE('',*,*,#89,.T.);
#156 = ORIENTED_EDGE('',*,*,#111,.T.);
#157 = ORIENTED_EDGE('',*,*,#39,.F.);
#158 = ORIENTED_EDGE('',*,*,#125,.F.);
#159 = EDGE_LOOP('',(#155,#156,#157,#158));
#160 = FACE_OUTER_BOUND('',#159,.T.);
#161 = CARTESIAN_POINT('',(-1.4,-9.06,0.2));
#162 = DIRECTION('',(0.,-1.,0.));
#163 = DIRECTION('',(1.,0.,0.));
#164 = AXIS2_PLACEMENT_3D('',#161,#162,#163);
#165 = PLANE('',#164);
#166 = ADVANCED_FACE('',(#160),#165,.T.);
#167 = CLOSED_SHELL('',(#66,#98,#120,#142,#154,#166));
#168 = MANIFOLD_SOLID_BREP('',#167);
#169 = COLOUR_RGB('',0.12,0.12,0.12);
#170 = FILL_AREA_STYLE_COLOUR('',#169);
#171 = FILL_AREA_STYLE('',(#170));
#172 = SURFACE_STYLE_FILL_AREA(#171);
#173 = SURFACE_SIDE_STYLE('',(#172));
#174 = SURFACE_STYLE_USAGE(.BOTH.,#173);
#175 = PRESENTATION_STYLE_ASSIGNMENT((#174));
#176 = STYLED_ITEM('color',(#175),#168);
#177 = CARTESIAN_POINT('',(-0.25,-0.2,-3.3));
#178 = VERTEX_POINT('',#177);
#179 = CARTESIAN_POINT('',(-0.25,-0.2,0.2));
#180 = VERTEX_POINT('',#179);
#181 = CARTESIAN_POINT('',(-0.25,0.2,-3.3));
#182 = VERTEX_POINT('',#181);
#183 = CARTESIAN_POINT('',(-0.25,0.2,0.2));
#184 = VERTEX_POINT('',#183);
#185 = CARTESIAN_POINT('',(0.25,-0.2,-3.3));
#186 = VERTEX_POINT('',#185);
#187 = CARTESIAN_POINT('',(0.25,-0.2,0.2));
#188 = VERTEX_POINT('',#187);
#189 = CARTESIAN_POINT('',(0.25,0.2,-3.3));
#190 = VERTEX_POINT('',#189);
#191 = CARTESIAN_POINT('',(0.25,0.2,0.2));
#192 = VERTEX_POINT('',#191);
#193 = DIRECTION('',(1.,0.,0.));
#194 = VECTOR('',#193,0.5);
#195 = CARTESIAN_POINT('',(-0.25,-0.2,0.2));
#196 = LINE('',#195,#194);
#197 = EDGE_CURVE('',#180,#188,#196,.T.);
#198 = ORIENTED_EDGE('',*,*,#197,.T.);
#199 = DIRECTION('',(0.,1.,0.));
#200 = VECTOR('',#199,0.4);
#201 = CARTESIAN_POINT('',(0.25,-0.2,0.2));
#202 = LINE('',#201,#200);
#203 = EDGE_CURVE('',#188,#192,#202,.T.);
#204 = ORIENTED_EDGE('',*,*,#203,.T.);
#205 = DIRECTION('',(1.,0.,0.));
#206 = VECTOR('',#205,0.5);
#207 = CARTESIAN_POINT('',(-0.25,0.2,0.2));
#208 = LINE('',#207,#206);
#209 = EDGE_CURVE('',#184,#192,#208,.T.);
#210 = ORIENTED_EDGE('',*,*,#209,.F.);
#211 = DIRECTION('',(0.,1.,0.));
#212 = VECTOR('',#211,0.4);
#213 = CARTESIAN_POINT('',(-0.25,-0.2,0.2));
#214 = LINE('',#213,#212);
#215 = EDGE_CURVE('',#180,#184,#214,.T.);
#216 = ORIENTED_EDGE('',*,*,#215,.F.);
#217 = EDGE_LOOP('',(#198,#204,#210,#216));
#218 = FACE_OUTER_BOUND('',#217,.T.);
#219 = CARTESIAN_POINT('',(-0.25,-0.2,0.2));
#220 = DIRECTION('',(0.,0.,1.));
#221 = DIRECTION('',(1.,0.,0.));
#222 = AXIS2_PLACEMENT_3D('',#219,#220,#221);
#223 = PLANE('',#222);
#224 = ADVANCED_FACE('',(#218),#223,.T.);
#225 = DIRECTION('',(0.,1.,0.));
#226 = VECTOR('',#225,0.4);
#227 = CARTESIAN_POINT('',(-0.25,-0.2,-3.3));
#228 = LINE('',#227,#226);
#229 = EDGE_CURVE('',#178,#182,#228,.T.);
#230 = ORIENTED_EDGE('',*,*,#229,.T.);
#231 = DIRECTION('',(1.,0.,0.));
#232 = VECTOR('',#231,0.5);
#233 = CARTESIAN_POINT('',(-0.25,0.2,-3.3));
#234 = LINE('',#233,#232);
#235 = EDGE_CURVE('',#182,#190,#234,.T.);
#236 = ORIENTED_EDGE('',*,*,#235,.T.);
#237 = DIRECTION('',(0.,1.,0.));
#238 = VECTOR('',#237,0.4);
#239 = CARTESIAN_POINT('',(0.25,-0.2,-3.3));
#240 = LINE('',#239,#238);
#241 = EDGE_CURVE('',#186,#190,#240,.T.);
#242 = ORIENTED_EDGE('',*,*,#241,.F.);
#243 = DIRECTION('',(1.,0.,0.));
#244 = VECTOR('',#243,0.5);
#245 = CARTESIAN_POINT('',(-0.25,-0.2,-3.3));
#246 = LINE('',#245,#244);
#247 = EDGE_CURVE('',#178,#186,#246,.T.);
#248 = ORIENTED_EDGE('',*,*,#247,.F.);
#249 = EDGE_LOOP('',(#230,#236,#242,#248));
#250 = FACE_OUTER_BOUND('',#249,.T.);
#251 = CARTESIAN_POINT('',(-0.25,-0.2,-3.3));
#252 = DIRECTION('',(0.,0.,-1.));
#253 = DIRECTION('',(1.,0.,0.));
#254 = AXIS2_PLACEMENT_3D('',#251,#252,#253);
#255 = PLANE('',#254);
#256 = ADVANCED_FACE('',(#250),#255,.T.);
#257 = ORIENTED_EDGE('',*,*,#241,.T.);
#258 = DIRECTION('',(0.,0.,1.));
#259 = VECTOR('',#258,3.5);
#260 = CARTESIAN_POINT('',(0.25,0.2,-3.3));
#261 = LINE('',#260,#259);
#262 = EDGE_CURVE('',#190,#192,#261,.T.);
#263 = ORIENTED_EDGE('',*,*,#262,.T.);
#264 = ORIENTED_EDGE('',*,*,#203,.F.);
#265 = DIRECTION('',(0.,0.,1.));
#266 = VECTOR('',#265,3.5);
#267 = CARTESIAN_POINT('',(0.25,-0.2,-3.3));
#268 = LINE('',#267,#266);
#269 = EDGE_CURVE('',#186,#188,#268,.T.);
#270 = ORIENTED_EDGE('',*,*,#269,.F.);
#271 = EDGE_LOOP('',(#257,#263,#264,#270));
#272 = FACE_OUTER_BOUND('',#271,.T.);
#273 = CARTESIAN_POINT('',(0.25,-0.2,-3.3));
#274 = DIRECTION('',(1.,0.,0.));
#275 = DIRECTION('',(0.,1.,0.));
#276 = AXIS2_PLACEMENT_3D('',#273,#274,#275);
#277 = PLANE('',#276);
#278 = ADVANCED_FACE('',(#272),#277,.T.);
#279 = DIRECTION('',(0.,0.,1.));
#280 = VECTOR('',#279,3.5);
#281 = CARTESIAN_POINT('',(-0.25,-0.2,-3.3));
#282 = LINE('',#281,#280);
#283 = EDGE_CURVE('',#178,#180,#282,.T.);
#284 = ORIENTED_EDGE('',*,*,#283,.T.);
#285 = ORIENTED_EDGE('',*,*,#215,.T.);
#286 = DIRECTION('',(0.,0.,1.));
#287 = VECTOR('',#286,3.5);
#288 = CARTESIAN_POINT('',(-0.25,0.2,-3.3));
#289 = LINE('',#288,#287);
#290 = EDGE_CURVE('',#182,#184,#289,.T.);
#291 = ORIENTED_EDGE('',*,*,#290,.F.);
#292 = ORIENTED_EDGE('',*,*,#229,.F.);
#293 = EDGE_LOOP('',(#284,#285,#291,#292));
#294 = FACE_OUTER_BOUND('',#293,.T.);
#295 = CARTESIAN_POINT('',(-0.25,-0.2,-3.3));
#296 = DIRECTION('',(-1.,0.,0.));
#297 = DIRECTION('',(0.,1.,0.));
#298 = AXIS2_PLACEMENT_3D('',#295,#296,#297);
#299 = PLANE('',#298);
#300 = ADVANCED_FACE('',(#294),#299,.T.);
#301 = ORIENTED_EDGE('',*,*,#290,.T.);
#302 = ORIENTED_EDGE('',*,*,#209,.T.);
#303 = ORIENTED_EDGE('',*,*,#262,.F.);
#304 = ORIENTED_EDGE('',*,*,#235,.F.);
#305 = EDGE_LOOP('',(#301,#302,#303,#304));
#306 = FACE_OUTER_BOUND('',#305,.T.);
#307 = CARTESIAN_POINT('',(-0.25,0.2,-3.3));
#308 = DIRECTION('',(0.,1.,0.));
#309 = DIRECTION('',(1.,0.,0.));
#310 = AXIS2_PLACEMENT_3D('',#307,#308,#309);
#311 = PLANE('',#310);
#312 = ADVANCED_FACE('',(#306),#311,.T.);
#313 = ORIENTED_EDGE('',*,*,#247,.T.);
#314 = ORIENTED_EDGE('',*,*,#269,.T.);
#315 = ORIENTED_EDGE('',*,*,#197,.F.);
#316 = ORIENTED_EDGE('',*,*,#283,.F.);
#317 = EDGE_LOOP('',(#313,#314,#315,#316));
#318 = FACE_OUTER_BOUND('',#317,.T.);
#319 = CARTESIAN_POINT('',(-0.25,-0.2,-3.3));
#320 = DIRECTION('',(0.,-1.,0.));
#321 = DIRECTION('',(1.,0.,0.));
#322 = AXIS2_PLACEMENT_3D('',#319,#320,#321);
#323 = PLANE('',#322);
#324 = ADVANCED_FACE('',(#318),#323,.T.);
#325 = CLOSED_SHELL('',(#224,#256,#278,#300,#312,#324));
#326 = MANIFOLD_SOLID_BREP('',#325);
#327 = COLOUR_RGB('',0.8,0.8,0.78);
#328 = FILL_AREA_STYLE_COLOUR('',#327);
#329 = FILL_AREA_STYLE('',(#328));
#330 = SURFACE_STYLE_FILL_AREA(#329);
#331 = SURFACE_SIDE_STYLE('',(#330));
#332 = SURFACE_STYLE_USAGE(.BOTH.,#331);
#333 = PRESENTATION_STYLE_ASSIGNMENT((#332));
#334 = STYLED_ITEM('color',(#333),#326);
#335 = CARTESIAN_POINT('',(-0.25,-7.82,-3.3));
#336 = VERTEX_POINT('',#335);
#337 = CARTESIAN_POINT('',(-0.25,-7.82,0.2));
#338 = VERTEX_POINT('',#337);
#339 = CARTESIAN_POINT('',(-0.25,-7.42,-3.3));
#340 = VERTEX_POINT('',#339);
#341 = CARTESIAN_POINT('',(-0.25,-7.42,0.2));
#342 = VERTEX_POINT('',#341);
#343 = CARTESIAN_POINT('',(0.25,-7.82,-3.3));
#344 = VERTEX_POINT('',#343);
#345 = CARTESIAN_POINT('',(0.25,-7.82,0.2));
#346 = VERTEX_POINT('',#345);
#347 = CARTESIAN_POINT('',(0.25,-7.42,-3.3));
#348 = VERTEX_POINT('',#347);
#349 = CARTESIAN_POINT('',(0.25,-7.42,0.2));
#350 = VERTEX_POINT('',#349);
#351 = DIRECTION('',(1.,0.,0.));
#352 = VECTOR('',#351,0.5);
#353 = CARTESIAN_POINT('',(-0.25,-7.82,0.2));
#354 = LINE('',#353,#352);
#355 = EDGE_CURVE('',#338,#346,#354,.T.);
#356 = ORIENTED_EDGE('',*,*,#355,.T.);
#357 = DIRECTION('',(0.,1.,0.));
#358 = VECTOR('',#357,0.4);
#359 = CARTESIAN_POINT('',(0.25,-7.82,0.2));
#360 = LINE('',#359,#358);
#361 = EDGE_CURVE('',#346,#350,#360,.T.);
#362 = ORIENTED_EDGE('',*,*,#361,.T.);
#363 = DIRECTION('',(1.,0.,0.));
#364 = VECTOR('',#363,0.5);
#365 = CARTESIAN_POINT('',(-0.25,-7.42,0.2));
#366 = LINE('',#365,#364);
#367 = EDGE_CURVE('',#342,#350,#366,.T.);
#368 = ORIENTED_EDGE('',*,*,#367,.F.);
#369 = DIRECTION('',(0.,1.,0.));
#370 = VECTOR('',#369,0.4);
#371 = CARTESIAN_POINT('',(-0.25,-7.82,0.2));
#372 = LINE('',#371,#370);
#373 = EDGE_CURVE('',#338,#342,#372,.T.);
#374 = ORIENTED_EDGE('',*,*,#373,.F.);
#375 = EDGE_LOOP('',(#356,#362,#368,#374));
#376 = FACE_OUTER_BOUND('',#375,.T.);
#377 = CARTESIAN_POINT('',(-0.25,-7.82,0.2));
#378 = DIRECTION('',(0.,0.,1.));
#379 = DIRECTION('',(1.,0.,0.));
#380 = AXIS2_PLACEMENT_3D('',#377,#378,#379);
#381 = PLANE('',#380);
#382 = ADVANCED_FACE('',(#376),#381,.T.);
#383 = DIRECTION('',(0.,1.,0.));
#384 = VECTOR('',#383,0.4);
#385 = CARTESIAN_POINT('',(-0.25,-7.82,-3.3));
#386 = LINE('',#385,#384);
#387 = EDGE_CURVE('',#336,#340,#386,.T.);
#388 = ORIENTED_EDGE('',*,*,#387,.T.);
#389 = DIRECTION('',(1.,0.,0.));
#390 = VECTOR('',#389,0.5);
#391 = CARTESIAN_POINT('',(-0.25,-7.42,-3.3));
#392 = LINE('',#391,#390);
#393 = EDGE_CURVE('',#340,#348,#392,.T.);
#394 = ORIENTED_EDGE('',*,*,#393,.T.);
#395 = DIRECTION('',(0.,1.,0.));
#396 = VECTOR('',#395,0.4);
#397 = CARTESIAN_POINT('',(0.25,-7.82,-3.3));
#398 = LINE('',#397,#396);
#399 = EDGE_CURVE('',#344,#348,#398,.T.);
#400 = ORIENTED_EDGE('',*,*,#399,.F.);
#401 = DIRECTION('',(1.,0.,0.));
#402 = VECTOR('',#401,0.5);
#403 = CARTESIAN_POINT('',(-0.25,-7.82,-3.3));
#404 = LINE('',#403,#402);
#405 = EDGE_CURVE('',#336,#344,#404,.T.);
#406 = ORIENTED_EDGE('',*,*,#405,.F.);
#407 = EDGE_LOOP('',(#388,#394,#400,#406));
#408 = FACE_OUTER_BOUND('',#407,.T.);
#409 = CARTESIAN_POINT('',(-0.25,-7.82,-3.3));
#410 = DIRECTION('',(0.,0.,-1.));
#411 = DIRECTION('',(1.,0.,0.));
#412 = AXIS2_PLACEMENT_3D('',#409,#410,#411);
#413 = PLANE('',#412);
#414 = ADVANCED_FACE('',(#408),#413,.T.);
#415 = ORIENTED_EDGE('',*,*,#399,.T.);
#416 = DIRECTION('',(0.,0.,1.));
#417 = VECTOR('',#416,3.5);
#418 = CARTESIAN_POINT('',(0.25,-7.42,-3.3));
#419 = LINE('',#418,#417);
#420 = EDGE_CURVE('',#348,#350,#419,.T.);
#421 = ORIENTED_EDGE('',*,*,#420,.T.);
#422 = ORIENTED_EDGE('',*,*,#361,.F.);
#423 = DIRECTION('',(0.,0.,1.));
#424 = VECTOR('',#423,3.5);
#425 = CARTESIAN_POINT('',(0.25,-7.82,-3.3));
#426 = LINE('',#425,#424);
#427 = EDGE_CURVE('',#344,#346,#426,.T.);
#428 = ORIENTED_EDGE('',*,*,#427,.F.);
#429 = EDGE_LOOP('',(#415,#421,#422,#428));
#430 = FACE_OUTER_BOUND('',#429,.T.);
#431 = CARTESIAN_POINT('',(0.25,-7.82,-3.3));
#432 = DIRECTION('',(1.,0.,0.));
#433 = DIRECTION('',(0.,1.,0.));
#434 = AXIS2_PLACEMENT_3D('',#431,#432,#433);
#435 = PLANE('',#434);
#436 = ADVANCED_FACE('',(#430),#435,.T.);
#437 = DIRECTION('',(0.,0.,1.));
#438 = VECTOR('',#437,3.5);
#439 = CARTESIAN_POINT('',(-0.25,-7.82,-3.3));
#440 = LINE('',#439,#438);
#441 = EDGE_CURVE('',#336,#338,#440,.T.);
#442 = ORIENTED_EDGE('',*,*,#441,.T.);
#443 = ORIENTED_EDGE('',*,*,#373,.T.);
#444 = DIRECTION('',(0.,0.,1.));
#445 = VECTOR('',#444,3.5);
#446 = CARTESIAN_POINT('',(-0.25,-7.42,-3.3));
#447 = LINE('',#446,#445);
#448 = EDGE_CURVE('',#340,#342,#447,.T.);
#449 = ORIENTED_EDGE('',*,*,#448,.F.);
#450 = ORIENTED_EDGE('',*,*,#387,.F.);
#451 = EDGE_LOOP('',(#442,#443,#449,#450));
#452 = FACE_OUTER_BOUND('',#451,.T.);
#453 = CARTESIAN_POINT('',(-0.25,-7.82,-3.3));
#454 = DIRECTION('',(-1.,0.,0.));
#455 = DIRECTION('',(0.,1.,0.));
#456 = AXIS2_PLACEMENT_3D('',#453,#454,#455);
#457 = PLANE('',#456);
#458 = ADVANCED_FACE('',(#452),#457,.T.);
#459 = ORIENTED_EDGE('',*,*,#448,.T.);
#460 = ORIENTED_EDGE('',*,*,#367,.T.);
#461 = ORIENTED_EDGE('',*,*,#420,.F.);
#462 = ORIENTED_EDGE('',*,*,#393,.F.);
#463 = EDGE_LOOP('',(#459,#460,#461,#462));
#464 = FACE_OUTER_BOUND('',#463,.T.);
#465 = CARTESIAN_POINT('',(-0.25,-7.42,-3.3));
#466 = DIRECTION('',(0.,1.,0.));
#467 = DIRECTION('',(1.,0.,0.));
#468 = AXIS2_PLACEMENT_3D('',#465,#466,#467);
#469 = PLANE('',#468);
#470 = ADVANCED_FACE('',(#464),#469,.T.);
#471 = ORIENTED_EDGE('',*,*,#405,.T.);
#472 = ORIENTED_EDGE('',*,*,#427,.T.);
#473 = ORIENTED_EDGE('',*,*,#355,.F.);
#474 = ORIENTED_EDGE('',*,*,#441,.F.);
#475 = EDGE_LOOP('',(#471,#472,#473,#474));
#476 = FACE_OUTER_BOUND('',#475,.T.);
#477 = CARTESIAN_POINT('',(-0.25,-7.82,-3.3));
#478 = DIRECTION('',(0.,-1.,0.));
#479 = DIRECTION('',(1.,0.,0.));
#480 = AXIS2_PLACEMENT_3D('',#477,#478,#479);
#481 = PLANE('',#480);
#482 = ADVANCED_FACE('',(#476),#481,.T.);
#483 = CLOSED_SHELL('',(#382,#414,#436,#458,#470,#482));
#484 = MANIFOLD_SOLID_BREP('',#483);
#485 = COLOUR_RGB('',0.8,0.8,0.78);
#486 = FILL_AREA_STYLE_COLOUR('',#485);
#487 = FILL_AREA_STYLE('',(#486));
#488 = SURFACE_STYLE_FILL_AREA(#487);
#489 = SURFACE_SIDE_STYLE('',(#488));
#490 = SURFACE_STYLE_USAGE(.BOTH.,#489);
#491 = PRESENTATION_STYLE_ASSIGNMENT((#490));
#492 = STYLED_ITEM('color',(#491),#484);
#493 = CARTESIAN_POINT('',(2.29,-0.2,-3.3));
#494 = VERTEX_POINT('',#493);
#495 = CARTESIAN_POINT('',(2.29,-0.2,0.2));
#496 = VERTEX_POINT('',#495);
#497 = CARTESIAN_POINT('',(2.29,0.2,-3.3));
#498 = VERTEX_POINT('',#497);
#499 = CARTESIAN_POINT('',(2.29,0.2,0.2));
#500 = VERTEX_POINT('',#499);
#501 = CARTESIAN_POINT('',(2.79,-0.2,-3.3));
#502 = VERTEX_POINT('',#501);
#503 = CARTESIAN_POINT('',(2.79,-0.2,0.2));
#504 = VERTEX_POINT('',#503);
#505 = CARTESIAN_POINT('',(2.79,0.2,-3.3));
#506 = VERTEX_POINT('',#505);
#507 = CARTESIAN_POINT('',(2.79,0.2,0.2));
#508 = VERTEX_POINT('',#507);
#509 = DIRECTION('',(1.,0.,0.));
#510 = VECTOR('',#509,0.5);
#511 = CARTESIAN_POINT('',(2.29,-0.2,0.2));
#512 = LINE('',#511,#510);
#513 = EDGE_CURVE('',#496,#504,#512,.T.);
#514 = ORIENTED_EDGE('',*,*,#513,.T.);
#515 = DIRECTION('',(0.,1.,0.));
#516 = VECTOR('',#515,0.4);
#517 = CARTESIAN_POINT('',(2.79,-0.2,0.2));
#518 = LINE('',#517,#516);
#519 = EDGE_CURVE('',#504,#508,#518,.T.);
#520 = ORIENTED_EDGE('',*,*,#519,.T.);
#521 = DIRECTION('',(1.,0.,0.));
#522 = VECTOR('',#521,0.5);
#523 = CARTESIAN_POINT('',(2.29,0.2,0.2));
#524 = LINE('',#523,#522);
#525 = EDGE_CURVE('',#500,#508,#524,.T.);
#526 = ORIENTED_EDGE('',*,*,#525,.F.);
#527 = DIRECTION('',(0.,1.,0.));
#528 = VECTOR('',#527,0.4);
#529 = CARTESIAN_POINT('',(2.29,-0.2,0.2));
#530 = LINE('',#529,#528);
#531 = EDGE_CURVE('',#496,#500,#530,.T.);
#532 = ORIENTED_EDGE('',*,*,#531,.F.);
#533 = EDGE_LOOP('',(#514,#520,#526,#532));
#534 = FACE_OUTER_BOUND('',#533,.T.);
#535 = CARTESIAN_POINT('',(2.29,-0.2,0.2));
#536 = DIRECTION('',(0.,0.,1.));
#537 = DIRECTION('',(1.,0.,0.));
#538 = AXIS2_PLACEMENT_3D('',#535,#536,#537);
#539 = PLANE('',#538);
#540 = ADVANCED_FACE('',(#534),#539,.T.);
#541 = DIRECTION('',(0.,1.,0.));
#542 = VECTOR('',#541,0.4);
#543 = CARTESIAN_POINT('',(2.29,-0.2,-3.3));
#544 = LINE('',#543,#542);
#545 = EDGE_CURVE('',#494,#498,#544,.T.);
#546 = ORIENTED_EDGE('',*,*,#545,.T.);
#547 = DIRECTION('',(1.,0.,0.));
#548 = VECTOR('',#547,0.5);
#549 = CARTESIAN_POINT('',(2.29,0.2,-3.3));
#550 = LINE('',#549,#548);
#551 = EDGE_CURVE('',#498,#506,#550,.T.);
#552 = ORIENTED_EDGE('',*,*,#551,.T.);
#553 = DIRECTION('',(0.,1.,0.));
#554 = VECTOR('',#553,0.4);
#555 = CARTESIAN_POINT('',(2.79,-0.2,-3.3));
#556 = LINE('',#555,#554);
#557 = EDGE_CURVE('',#502,#506,#556,.T.);
#558 = ORIENTED_EDGE('',*,*,#557,.F.);
#559 = DIRECTION('',(1.,0.,0.));
#560 = VECTOR('',#559,0.5);
#561 = CARTESIAN_POINT('',(2.29,-0.2,-3.3));
#562 = LINE('',#561,#560);
#563 = EDGE_CURVE('',#494,#502,#562,.T.);
#564 = ORIENTED_EDGE('',*,*,#563,.F.);
#565 = EDGE_LOOP('',(#546,#552,#558,#564));
#566 = FACE_OUTER_BOUND('',#565,.T.);
#567 = CARTESIAN_POINT('',(2.29,-0.2,-3.3));
#568 = DIRECTION('',(0.,0.,-1.));
#569 = DIRECTION('',(1.,0.,0.));
#570 = AXIS2_PLACEMENT_3D('',#567,#568,#569);
#571 = PLANE('',#570);
#572 = ADVANCED_FACE('',(#566),#571,.T.);
#573 = ORIENTED_EDGE('',*,*,#557,.T.);
#574 = DIRECTION('',(0.,0.,1.));
#575 = VECTOR('',#574,3.5);
#576 = CARTESIAN_POINT('',(2.79,0.2,-3.3));
#577 = LINE('',#576,#575);
#578 = EDGE_CURVE('',#506,#508,#577,.T.);
#579 = ORIENTED_EDGE('',*,*,#578,.T.);
#580 = ORIENTED_EDGE('',*,*,#519,.F.);
#581 = DIRECTION('',(0.,0.,1.));
#582 = VECTOR('',#581,3.5);
#583 = CARTESIAN_POINT('',(2.79,-0.2,-3.3));
#584 = LINE('',#583,#582);
#585 = EDGE_CURVE('',#502,#504,#584,.T.);
#586 = ORIENTED_EDGE('',*,*,#585,.F.);
#587 = EDGE_LOOP('',(#573,#579,#580,#586));
#588 = FACE_OUTER_BOUND('',#587,.T.);
#589 = CARTESIAN_POINT('',(2.79,-0.2,-3.3));
#590 = DIRECTION('',(1.,0.,0.));
#591 = DIRECTION('',(0.,1.,0.));
#592 = AXIS2_PLACEMENT_3D('',#589,#590,#591);
#593 = PLANE('',#592);
#594 = ADVANCED_FACE('',(#588),#593,.T.);
#595 = DIRECTION('',(0.,0.,1.));
#596 = VECTOR('',#595,3.5);
#597 = CARTESIAN_POINT('',(2.29,-0.2,-3.3));
#598 = LINE('',#597,#596);
#599 = EDGE_CURVE('',#494,#496,#598,.T.);
#600 = ORIENTED_EDGE('',*,*,#599,.T.);
#601 = ORIENTED_EDGE('',*,*,#531,.T.);
#602 = DIRECTION('',(0.,0.,1.));
#603 = VECTOR('',#602,3.5);
#604 = CARTESIAN_POINT('',(2.29,0.2,-3.3));
#605 = LINE('',#604,#603);
#606 = EDGE_CURVE('',#498,#500,#605,.T.);
#607 = ORIENTED_EDGE('',*,*,#606,.F.);
#608 = ORIENTED_EDGE('',*,*,#545,.F.);
#609 = EDGE_LOOP('',(#600,#601,#607,#608));
#610 = FACE_OUTER_BOUND('',#609,.T.);
#611 = CARTESIAN_POINT('',(2.29,-0.2,-3.3));
#612 = DIRECTION('',(-1.,0.,0.));
#613 = DIRECTION('',(0.,1.,0.));
#614 = AXIS2_PLACEMENT_3D('',#611,#612,#613);
#615 = PLANE('',#614);
#616 = ADVANCED_FACE('',(#610),#615,.T.);
#617 = ORIENTED_EDGE('',*,*,#606,.T.);
#618 = ORIENTED_EDGE('',*,*,#525,.T.);
#619 = ORIENTED_EDGE('',*,*,#578,.F.);
#620 = ORIENTED_EDGE('',*,*,#551,.F.);
#621 = EDGE_LOOP('',(#617,#618,#619,#620));
#622 = FACE_OUTER_BOUND('',#621,.T.);
#623 = CARTESIAN_POINT('',(2.29,0.2,-3.3));
#624 = DIRECTION('',(0.,1.,0.));
#625 = DIRECTION('',(1.,0.,0.));
#626 = AXIS2_PLACEMENT_3D('',#623,#624,#625);
#627 = PLANE('',#626);
#628 = ADVANCED_FACE('',(#622),#627,.T.);
#629 = ORIENTED_EDGE('',*,*,#563,.T.);
#630 = ORIENTED_EDGE('',*,*,#585,.T.);
#631 = ORIENTED_EDGE('',*,*,#513,.F.);
#632 = ORIENTED_EDGE('',*,*,#599,.F.);
#633 = EDGE_LOOP('',(#629,#630,#631,#632));
#634 = FACE_OUTER_BOUND('',#633,.T.);
#635 = CARTESIAN_POINT('',(2.29,-0.2,-3.3));
#636 = DIRECTION('',(0.,-1.,0.));
#637 = DIRECTION('',(1.,0.,0.));
#638 = AXIS2_PLACEMENT_3D('',#635,#636,#637);
#639 = PLANE('',#638);
#640 = ADVANCED_FACE('',(#634),#639,.T.);
#641 = CLOSED_SHELL('',(#540,#572,#594,#616,#628,#640));
#642 = MANIFOLD_SOLID_BREP('',#641);
#643 = COLOUR_RGB('',0.8,0.8,0.78);
#644 = FILL_AREA_STYLE_COLOUR('',#643);
#645 = FILL_AREA_STYLE('',(#644));
#646 = SURFACE_STYLE_FILL_AREA(#645);
#647 = SURFACE_SIDE_STYLE('',(#646));
#648 = SURFACE_STYLE_USAGE(.BOTH.,#647);
#649 = PRESENTATION_STYLE_ASSIGNMENT((#648));
#650 = STYLED_ITEM('color',(#649),#642);
#651 = CARTESIAN_POINT('',(2.29,-7.82,-3.3));
#652 = VERTEX_POINT('',#651);
#653 = CARTESIAN_POINT('',(2.29,-7.82,0.2));
#654 = VERTEX_POINT('',#653);
#655 = CARTESIAN_POINT('',(2.29,-7.42,-3.3));
#656 = VERTEX_POINT('',#655);
#657 = CARTESIAN_POINT('',(2.29,-7.42,0.2));
#658 = VERTEX_POINT('',#657);
#659 = CARTESIAN_POINT('',(2.79,-7.82,-3.3));
#660 = VERTEX_POINT('',#659);
#661 = CARTESIAN_POINT('',(2.79,-7.82,0.2));
#662 = VERTEX_POINT('',#661);
#663 = CARTESIAN_POINT('',(2.79,-7.42,-3.3));
#664 = VERTEX_POINT('',#663);
#665 = CARTESIAN_POINT('',(2.79,-7.42,0.2));
#666 = VERTEX_POINT('',#665);
#667 = DIRECTION('',(1.,0.,0.));
#668 = VECTOR('',#667,0.5);
#669 = CARTESIAN_POINT('',(2.29,-7.82,0.2));
#670 = LINE('',#669,#668);
#671 = EDGE_CURVE('',#654,#662,#670,.T.);
#672 = ORIENTED_EDGE('',*,*,#671,.T.);
#673 = DIRECTION('',(0.,1.,0.));
#674 = VECTOR('',#673,0.4);
#675 = CARTESIAN_POINT('',(2.79,-7.82,0.2));
#676 = LINE('',#675,#674);
#677 = EDGE_CURVE('',#662,#666,#676,.T.);
#678 = ORIENTED_EDGE('',*,*,#677,.T.);
#679 = DIRECTION('',(1.,0.,0.));
#680 = VECTOR('',#679,0.5);
#681 = CARTESIAN_POINT('',(2.29,-7.42,0.2));
#682 = LINE('',#681,#680);
#683 = EDGE_CURVE('',#658,#666,#682,.T.);
#684 = ORIENTED_EDGE('',*,*,#683,.F.);
#685 = DIRECTION('',(0.,1.,0.));
#686 = VECTOR('',#685,0.4);
#687 = CARTESIAN_POINT('',(2.29,-7.82,0.2));
#688 = LINE('',#687,#686);
#689 = EDGE_CURVE('',#654,#658,#688,.T.);
#690 = ORIENTED_EDGE('',*,*,#689,.F.);
#691 = EDGE_LOOP('',(#672,#678,#684,#690));
#692 = FACE_OUTER_BOUND('',#691,.T.);
#693 = CARTESIAN_POINT('',(2.29,-7.82,0.2));
#694 = DIRECTION('',(0.,0.,1.));
#695 = DIRECTION('',(1.,0.,0.));
#696 = AXIS2_PLACEMENT_3D('',#693,#694,#695);
#697 = PLANE('',#696);
#698 = ADVANCED_FACE('',(#692),#697,.T.);
#699 = DIRECTION('',(0.,1.,0.));
#700 = VECTOR('',#699,0.4);
#701 = CARTESIAN_POINT('',(2.29,-7.82,-3.3));
#702 = LINE('',#701,#700);
#703 = EDGE_CURVE('',#652,#656,#702,.T.);
#704 = ORIENTED_EDGE('',*,*,#703,.T.);
#705 = DIRECTION('',(1.,0.,0.));
#706 = VECTOR('',#705,0.5);
#707 = CARTESIAN_POINT('',(2.29,-7.42,-3.3));
#708 = LINE('',#707,#706);
#709 = EDGE_CURVE('',#656,#664,#708,.T.);
#710 = ORIENTED_EDGE('',*,*,#709,.T.);
#711 = DIRECTION('',(0.,1.,0.));
#712 = VECTOR('',#711,0.4);
#713 = CARTESIAN_POINT('',(2.79,-7.82,-3.3));
#714 = LINE('',#713,#712);
#715 = EDGE_CURVE('',#660,#664,#714,.T.);
#716 = ORIENTED_EDGE('',*,*,#715,.F.);
#717 = DIRECTION('',(1.,0.,0.));
#718 = VECTOR('',#717,0.5);
#719 = CARTESIAN_POINT('',(2.29,-7.82,-3.3));
#720 = LINE('',#719,#718);
#721 = EDGE_CURVE('',#652,#660,#720,.T.);
#722 = ORIENTED_EDGE('',*,*,#721,.F.);
#723 = EDGE_LOOP('',(#704,#710,#716,#722));
#724 = FACE_OUTER_BOUND('',#723,.T.);
#725 = CARTESIAN_POINT('',(2.29,-7.82,-3.3));
#726 = DIRECTION('',(0.,0.,-1.));
#727 = DIRECTION('',(1.,0.,0.));
#728 = AXIS2_PLACEMENT_3D('',#725,#726,#727);
#729 = PLANE('',#728);
#730 = ADVANCED_FACE('',(#724),#729,.T.);
#731 = ORIENTED_EDGE('',*,*,#715,.T.);
#732 = DIRECTION('',(0.,0.,1.));
#733 = VECTOR('',#732,3.5);
#734 = CARTESIAN_POINT('',(2.79,-7.42,-3.3));
#735 = LINE('',#734,#733);
#736 = EDGE_CURVE('',#664,#666,#735,.T.);
#737 = ORIENTED_EDGE('',*,*,#736,.T.);
#738 = ORIENTED_EDGE('',*,*,#677,.F.);
#739 = DIRECTION('',(0.,0.,1.));
#740 = VECTOR('',#739,3.5);
#741 = CARTESIAN_POINT('',(2.79,-7.82,-3.3));
#742 = LINE('',#741,#740);
#743 = EDGE_CURVE('',#660,#662,#742,.T.);
#744 = ORIENTED_EDGE('',*,*,#743,.F.);
#745 = EDGE_LOOP('',(#731,#737,#738,#744));
#746 = FACE_OUTER_BOUND('',#745,.T.);
#747 = CARTESIAN_POINT('',(2.79,-7.82,-3.3));
#748 = DIRECTION('',(1.,0.,0.));
#749 = DIRECTION('',(0.,1.,0.));
#750 = AXIS2_PLACEMENT_3D('',#747,#748,#749);
#751 = PLANE('',#750);
#752 = ADVANCED_FACE('',(#746),#751,.T.);
#753 = DIRECTION('',(0.,0.,1.));
#754 = VECTOR('',#753,3.5);
#755 = CARTESIAN_POINT('',(2.29,-7.82,-3.3));
#756 = LINE('',#755,#754);
#757 = EDGE_CURVE('',#652,#654,#756,.T.);
#758 = ORIENTED_EDGE('',*,*,#757,.T.);
#759 = ORIENTED_EDGE('',*,*,#689,.T.);
#760 = DIRECTION('',(0.,0.,1.));
#761 = VECTOR('',#760,3.5);
#762 = CARTESIAN_POINT('',(2.29,-7.42,-3.3));
#763 = LINE('',#762,#761);
#764 = EDGE_CURVE('',#656,#658,#763,.T.);
#765 = ORIENTED_EDGE('',*,*,#764,.F.);
#766 = ORIENTED_EDGE('',*,*,#703,.F.);
#767 = EDGE_LOOP('',(#758,#759,#765,#766));
#768 = FACE_OUTER_BOUND('',#767,.T.);
#769 = CARTESIAN_POINT('',(2.29,-7.82,-3.3));
#770 = DIRECTION('',(-1.,0.,0.));
#771 = DIRECTION('',(0.,1.,0.));
#772 = AXIS2_PLACEMENT_3D('',#769,#770,#771);
#773 = PLANE('',#772);
#774 = ADVANCED_FACE('',(#768),#773,.T.);
#775 = ORIENTED_EDGE('',*,*,#764,.T.);
#776 = ORIENTED_EDGE('',*,*,#683,.T.);
#777 = ORIENTED_EDGE('',*,*,#736,.F.);
#778 = ORIENTED_EDGE('',*,*,#709,.F.);
#779 = EDGE_LOOP('',(#775,#776,#777,#778));
#780 = FACE_OUTER_BOUND('',#779,.T.);
#781 = CARTESIAN_POINT('',(2.29,-7.42,-3.3));
#782 = DIRECTION('',(0.,1.,0.));
#783 = DIRECTION('',(1.,0.,0.));
#784 = AXIS2_PLACEMENT_3D('',#781,#782,#783);
#785 = PLANE('',#784);
#786 = ADVANCED_FACE('',(#780),#785,.T.);
#787 = ORIENTED_EDGE('',*,*,#721,.T.);
#788 = ORIENTED_EDGE('',*,*,#743,.T.);
#789 = ORIENTED_EDGE('',*,*,#671,.F.);
#790 = ORIENTED_EDGE('',*,*,#757,.F.);
#791 = EDGE_LOOP('',(#787,#788,#789,#790));
#792 = FACE_OUTER_BOUND('',#791,.T.);
#793 = CARTESIAN_POINT('',(2.29,-7.82,-3.3));
#794 = DIRECTION('',(0.,-1.,0.));
#795 = DIRECTION('',(1.,0.,0.));
#796 = AXIS2_PLACEMENT_3D('',#793,#794,#795);
#797 = PLANE('',#796);
#798 = ADVANCED_FACE('',(#792),#797,.T.);
#799 = CLOSED_SHELL('',(#698,#730,#752,#774,#786,#798));
#800 = MANIFOLD_SOLID_BREP('',#799);
#801 = COLOUR_RGB('',0.8,0.8,0.78);
#802 = FILL_AREA_STYLE_COLOUR('',#801);
#803 = FILL_AREA_STYLE('',(#802));
#804 = SURFACE_STYLE_FILL_AREA(#803);
#805 = SURFACE_SIDE_STYLE('',(#804));
#806 = SURFACE_STYLE_USAGE(.BOTH.,#805);
#807 = PRESENTATION_STYLE_ASSIGNMENT((#806));
#808 = STYLED_ITEM('color',(#807),#800);
#809 = CARTESIAN_POINT('',(12.45,-0.2,-3.3));
#810 = VERTEX_POINT('',#809);
#811 = CARTESIAN_POINT('',(12.45,-0.2,0.2));
#812 = VERTEX_POINT('',#811);
#813 = CARTESIAN_POINT('',(12.45,0.2,-3.3));
#814 = VERTEX_POINT('',#813);
#815 = CARTESIAN_POINT('',(12.45,0.2,0.2));
#816 = VERTEX_POINT('',#815);
#817 = CARTESIAN_POINT('',(12.95,-0.2,-3.3));
#818 = VERTEX_POINT('',#817);
#819 = CARTESIAN_POINT('',(12.95,-0.2,0.2));
#820 = VERTEX_POINT('',#819);
#821 = CARTESIAN_POINT('',(12.95,0.2,-3.3));
#822 = VERTEX_POINT('',#821);
#823 = CARTESIAN_POINT('',(12.95,0.2,0.2));
#824 = VERTEX_POINT('',#823);
#825 = DIRECTION('',(1.,0.,0.));
#826 = VECTOR('',#825,0.5);
#827 = CARTESIAN_POINT('',(12.45,-0.2,0.2));
#828 = LINE('',#827,#826);
#829 = EDGE_CURVE('',#812,#820,#828,.T.);
#830 = ORIENTED_EDGE('',*,*,#829,.T.);
#831 = DIRECTION('',(0.,1.,0.));
#832 = VECTOR('',#831,0.4);
#833 = CARTESIAN_POINT('',(12.95,-0.2,0.2));
#834 = LINE('',#833,#832);
#835 = EDGE_CURVE('',#820,#824,#834,.T.);
#836 = ORIENTED_EDGE('',*,*,#835,.T.);
#837 = DIRECTION('',(1.,0.,0.));
#838 = VECTOR('',#837,0.5);
#839 = CARTESIAN_POINT('',(12.45,0.2,0.2));
#840 = LINE('',#839,#838);
#841 = EDGE_CURVE('',#816,#824,#840,.T.);
#842 = ORIENTED_EDGE('',*,*,#841,.F.);
#843 = DIRECTION('',(0.,1.,0.));
#844 = VECTOR('',#843,0.4);
#845 = CARTESIAN_POINT('',(12.45,-0.2,0.2));
#846 = LINE('',#845,#844);
#847 = EDGE_CURVE('',#812,#816,#846,.T.);
#848 = ORIENTED_EDGE('',*,*,#847,.F.);
#849 = EDGE_LOOP('',(#830,#836,#842,#848));
#850 = FACE_OUTER_BOUND('',#849,.T.);
#851 = CARTESIAN_POINT('',(12.45,-0.2,0.2));
#852 = DIRECTION('',(0.,0.,1.));
#853 = DIRECTION('',(1.,0.,0.));
#854 = AXIS2_PLACEMENT_3D('',#851,#852,#853);
#855 = PLANE('',#854);
#856 = ADVANCED_FACE('',(#850),#855,.T.);
#857 = DIRECTION('',(0.,1.,0.));
#858 = VECTOR('',#857,0.4);
#859 = CARTESIAN_POINT('',(12.45,-0.2,-3.3));
#860 = LINE('',#859,#858);
#861 = EDGE_CURVE('',#810,#814,#860,.T.);
#862 = ORIENTED_EDGE('',*,*,#861,.T.);
#863 = DIRECTION('',(1.,0.,0.));
#864 = VECTOR('',#863,0.5);
#865 = CARTESIAN_POINT('',(12.45,0.2,-3.3));
#866 = LINE('',#865,#864);
#867 = EDGE_CURVE('',#814,#822,#866,.T.);
#868 = ORIENTED_EDGE('',*,*,#867,.T.);
#869 = DIRECTION('',(0.,1.,0.));
#870 = VECTOR('',#869,0.4);
#871 = CARTESIAN_POINT('',(12.95,-0.2,-3.3));
#872 = LINE('',#871,#870);
#873 = EDGE_CURVE('',#818,#822,#872,.T.);
#874 = ORIENTED_EDGE('',*,*,#873,.F.);
#875 = DIRECTION('',(1.,0.,0.));
#876 = VECTOR('',#875,0.5);
#877 = CARTESIAN_POINT('',(12.45,-0.2,-3.3));
#878 = LINE('',#877,#876);
#879 = EDGE_CURVE('',#810,#818,#878,.T.);
#880 = ORIENTED_EDGE('',*,*,#879,.F.);
#881 = EDGE_LOOP('',(#862,#868,#874,#880));
#882 = FACE_OUTER_BOUND('',#881,.T.);
#883 = CARTESIAN_POINT('',(12.45,-0.2,-3.3));
#884 = DIRECTION('',(0.,0.,-1.));
#885 = DIRECTION('',(1.,0.,0.));
#886 = AXIS2_PLACEMENT_3D('',#883,#884,#885);
#887 = PLANE('',#886);
#888 = ADVANCED_FACE('',(#882),#887,.T.);
#889 = ORIENTED_EDGE('',*,*,#873,.T.);
#890 = DIRECTION('',(0.,0.,1.));
#891 = VECTOR('',#890,3.5);
#892 = CARTESIAN_POINT('',(12.95,0.2,-3.3));
#893 = LINE('',#892,#891);
#894 = EDGE_CURVE('',#822,#824,#893,.T.);
#895 = ORIENTED_EDGE('',*,*,#894,.T.);
#896 = ORIENTED_EDGE('',*,*,#835,.F.);
#897 = DIRECTION('',(0.,0.,1.));
#898 = VECTOR('',#897,3.5);
#899 = CARTESIAN_POINT('',(12.95,-0.2,-3.3));
#900 = LINE('',#899,#898);
#901 = EDGE_CURVE('',#818,#820,#900,.T.);
#902 = ORIENTED_EDGE('',*,*,#901,.F.);
#903 = EDGE_LOOP('',(#889,#895,#896,#902));
#904 = FACE_OUTER_BOUND('',#903,.T.);
#905 = CARTESIAN_POINT('',(12.95,-0.2,-3.3));
#906 = DIRECTION('',(1.,0.,0.));
#907 = DIRECTION('',(0.,1.,0.));
#908 = AXIS2_PLACEMENT_3D('',#905,#906,#907);
#909 = PLANE('',#908);
#910 = ADVANCED_FACE('',(#904),#909,.T.);
#911 = DIRECTION('',(0.,0.,1.));
#912 = VECTOR('',#911,3.5);
#913 = CARTESIAN_POINT('',(12.45,-0.2,-3.3));
#914 = LINE('',#913,#912);
#915 = EDGE_CURVE('',#810,#812,#914,.T.);
#916 = ORIENTED_EDGE('',*,*,#915,.T.);
#917 = ORIENTED_EDGE('',*,*,#847,.T.);
#918 = DIRECTION('',(0.,0.,1.));
#919 = VECTOR('',#918,3.5);
#920 = CARTESIAN_POINT('',(12.45,0.2,-3.3));
#921 = LINE('',#920,#919);
#922 = EDGE_CURVE('',#814,#816,#921,.T.);
#923 = ORIENTED_EDGE('',*,*,#922,.F.);
#924 = ORIENTED_EDGE('',*,*,#861,.F.);
#925 = EDGE_LOOP('',(#916,#917,#923,#924));
#926 = FACE_OUTER_BOUND('',#925,.T.);
#927 = CARTESIAN_POINT('',(12.45,-0.2,-3.3));
#928 = DIRECTION('',(-1.,0.,0.));
#929 = DIRECTION('',(0.,1.,0.));
#930 = AXIS2_PLACEMENT_3D('',#927,#928,#929);
#931 = PLANE('',#930);
#932 = ADVANCED_FACE('',(#926),#931,.T.);
#933 = ORIENTED_EDGE('',*,*,#922,.T.);
#934 = ORIENTED_EDGE('',*,*,#841,.T.);
#935 = ORIENTED_EDGE('',*,*,#894,.F.);
#936 = ORIENTED_EDGE('',*,*,#867,.F.);
#937 = EDGE_LOOP('',(#933,#934,#935,#936));
#938 = FACE_OUTER_BOUND('',#937,.T.);
#939 = CARTESIAN_POINT('',(12.45,0.2,-3.3));
#940 = DIRECTION('',(0.,1.,0.));
#941 = DIRECTION('',(1.,0.,0.));
#942 = AXIS2_PLACEMENT_3D('',#939,#940,#941);
#943 = PLANE('',#942);
#944 = ADVANCED_FACE('',(#938),#943,.T.);
#945 = ORIENTED_EDGE('',*,*,#879,.T.);
#946 = ORIENTED_EDGE('',*,*,#901,.T.);
#947 = ORIENTED_EDGE('',*,*,#829,.F.);
#948 = ORIENTED_EDGE('',*,*,#915,.F.);
#949 = EDGE_LOOP('',(#945,#946,#947,#948));
#950 = FACE_OUTER_BOUND('',#949,.T.);
#951 = CARTESIAN_POINT('',(12.45,-0.2,-3.3));
#952 = DIRECTION('',(0.,-1.,0.));
#953 = DIRECTION('',(1.,0.,0.));
#954 = AXIS2_PLACEMENT_3D('',#951,#952,#953);
#955 = PLANE('',#954);
#956 = ADVANCED_FACE('',(#950),#955,.T.);
#957 = CLOSED_SHELL('',(#856,#888,#910,#932,#944,#956));
#958 = MANIFOLD_SOLID_BREP('',#957);
#959 = COLOUR_RGB('',0.8,0.8,0.78);
#960 = FILL_AREA_STYLE_COLOUR('',#959);
#961 = FILL_AREA_STYLE('',(#960));
#962 = SURFACE_STYLE_FILL_AREA(#961);
#963 = SURFACE_SIDE_STYLE('',(#962));
#964 = SURFACE_STYLE_USAGE(.BOTH.,#963);
#965 = PRESENTATION_STYLE_ASSIGNMENT((#964));
#966 = STYLED_ITEM('color',(#965),#958);
#967 = CARTESIAN_POINT('',(12.45,-7.82,-3.3));
#968 = VERTEX_POINT('',#967);
#969 = CARTESIAN_POINT('',(12.45,-7.82,0.2));
#970 = VERTEX_POINT('',#969);
#971 = CARTESIAN_POINT('',(12.45,-7.42,-3.3));
#972 = VERTEX_POINT('',#971);
#973 = CARTESIAN_POINT('',(12.45,-7.42,0.2));
#974 = VERTEX_POINT('',#973);
#975 = CARTESIAN_POINT('',(12.95,-7.82,-3.3));
#976 = VERTEX_POINT('',#975);
#977 = CARTESIAN_POINT('',(12.95,-7.82,0.2));
#978 = VERTEX_POINT('',#977);
#979 = CARTESIAN_POINT('',(12.95,-7.42,-3.3));
#980 = VERTEX_POINT('',#979);
#981 = CARTESIAN_POINT('',(12.95,-7.42,0.2));
#982 = VERTEX_POINT('',#981);
#983 = DIRECTION('',(1.,0.,0.));
#984 = VECTOR('',#983,0.5);
#985 = CARTESIAN_POINT('',(12.45,-7.82,0.2));
#986 = LINE('',#985,#984);
#987 = EDGE_CURVE('',#970,#978,#986,.T.);
#988 = ORIENTED_EDGE('',*,*,#987,.T.);
#989 = DIRECTION('',(0.,1.,0.));
#990 = VECTOR('',#989,0.4);
#991 = CARTESIAN_POINT('',(12.95,-7.82,0.2));
#992 = LINE('',#991,#990);
#993 = EDGE_CURVE('',#978,#982,#992,.T.);
#994 = ORIENTED_EDGE('',*,*,#993,.T.);
#995 = DIRECTION('',(1.,0.,0.));
#996 = VECTOR('',#995,0.5);
#997 = CARTESIAN_POINT('',(12.45,-7.42,0.2));
#998 = LINE('',#997,#996);
#999 = EDGE_CURVE('',#974,#982,#998,.T.);
#1000 = ORIENTED_EDGE('',*,*,#999,.F.);
#1001 = DIRECTION('',(0.,1.,0.));
#1002 = VECTOR('',#1001,0.4);
#1003 = CARTESIAN_POINT('',(12.45,-7.82,0.2));
#1004 = LINE('',#1003,#1002);
#1005 = EDGE_CURVE('',#970,#974,#1004,.T.);
#1006 = ORIENTED_EDGE('',*,*,#1005,.F.);
#1007 = EDGE_LOOP('',(#988,#994,#1000,#1006));
#1008 = FACE_OUTER_BOUND('',#1007,.T.);
#1009 = CARTESIAN_POINT('',(12.45,-7.82,0.2));
#1010 = DIRECTION('',(0.,0.,1.));
#1011 = DIRECTION('',(1.,0.,0.));
#1012 = AXIS2_PLACEMENT_3D('',#1009,#1010,#1011);
#1013 = PLANE('',#1012);
#1014 = ADVANCED_FACE('',(#1008),#1013,.T.);
#1015 = DIRECTION('',(0.,1.,0.));
#1016 = VECTOR('',#1015,0.4);
#1017 = CARTESIAN_POINT('',(12.45,-7.82,-3.3));
#1018 = LINE('',#1017,#1016);
#1019 = EDGE_CURVE('',#968,#972,#1018,.T.);
#1020 = ORIENTED_EDGE('',*,*,#1019,.T.);
#1021 = DIRECTION('',(1.,0.,0.));
#1022 = VECTOR('',#1021,0.5);
#1023 = CARTESIAN_POINT('',(12.45,-7.42,-3.3));
#1024 = LINE('',#1023,#1022);
#1025 = EDGE_CURVE('',#972,#980,#1024,.T.);
#1026 = ORIENTED_EDGE('',*,*,#1025,.T.);
#1027 = DIRECTION('',(0.,1.,0.));
#1028 = VECTOR('',#1027,0.4);
#1029 = CARTESIAN_POINT('',(12.95,-7.82,-3.3));
#1030 = LINE('',#1029,#1028);
#1031 = EDGE_CURVE('',#976,#980,#1030,.T.);
#1032 = ORIENTED_EDGE('',*,*,#1031,.F.);
#1033 = DIRECTION('',(1.,0.,0.));
#1034 = VECTOR('',#1033,0.5);
#1035 = CARTESIAN_POINT('',(12.45,-7.82,-3.3));
#1036 = LINE('',#1035,#1034);
#1037 = EDGE_CURVE('',#968,#976,#1036,.T.);
#1038 = ORIENTED_EDGE('',*,*,#1037,.F.);
#1039 = EDGE_LOOP('',(#1020,#1026,#1032,#1038));
#1040 = FACE_OUTER_BOUND('',#1039,.T.);
#1041 = CARTESIAN_POINT('',(12.45,-7.82,-3.3));
#1042 = DIRECTION('',(0.,0.,-1.));
#1043 = DIRECTION('',(1.,0.,0.));
#1044 = AXIS2_PLACEMENT_3D('',#1041,#1042,#1043);
#1045 = PLANE('',#1044);
#1046 = ADVANCED_FACE('',(#1040),#1045,.T.);
#1047 = ORIENTED_EDGE('',*,*,#1031,.T.);
#1048 = DIRECTION('',(0.,0.,1.));
#1049 = VECTOR('',#1048,3.5);
#1050 = CARTESIAN_POINT('',(12.95,-7.42,-3.3));
#1051 = LINE('',#1050,#1049);
#1052 = EDGE_CURVE('',#980,#982,#1051,.T.);
#1053 = ORIENTED_EDGE('',*,*,#1052,.T.);
#1054 = ORIENTED_EDGE('',*,*,#993,.F.);
#1055 = DIRECTION('',(0.,0.,1.));
#1056 = VECTOR('',#1055,3.5);
#1057 = CARTESIAN_POINT('',(12.95,-7.82,-3.3));
#1058 = LINE('',#1057,#1056);
#1059 = EDGE_CURVE('',#976,#978,#1058,.T.);
#1060 = ORIENTED_EDGE('',*,*,#1059,.F.);
#1061 = EDGE_LOOP('',(#1047,#1053,#1054,#1060));
#1062 = FACE_OUTER_BOUND('',#1061,.T.);
#1063 = CARTESIAN_POINT('',(12.95,-7.82,-3.3));
#1064 = DIRECTION('',(1.,0.,0.));
#1065 = DIRECTION('',(0.,1.,0.));
#1066 = AXIS2_PLACEMENT_3D('',#1063,#1064,#1065);
#1067 = PLANE('',#1066);
#1068 = ADVANCED_FACE('',(#1062),#1067,.T.);
#1069 = DIRECTION('',(0.,0.,1.));
#1070 = VECTOR('',#1069,3.5);
#1071 = CARTESIAN_POINT('',(12.45,-7.82,-3.3));
#1072 = LINE('',#1071,#1070);
#1073 = EDGE_CURVE('',#968,#970,#1072,.T.);
#1074 = ORIENTED_EDGE('',*,*,#1073,.T.);
#1075 = ORIENTED_EDGE('',*,*,#1005,.T.);
#1076 = DIRECTION('',(0.,0.,1.));
#1077 = VECTOR('',#1076,3.5);
#1078 = CARTESIAN_POINT('',(12.45,-7.42,-3.3));
#1079 = LINE('',#1078,#1077);
#1080 = EDGE_CURVE('',#972,#974,#1079,.T.);
#1081 = ORIENTED_EDGE('',*,*,#1080,.F.);
#1082 = ORIENTED_EDGE('',*,*,#1019,.F.);
#1083 = EDGE_LOOP('',(#1074,#1075,#1081,#1082));
#1084 = FACE_OUTER_BOUND('',#1083,.T.);
#1085 = CARTESIAN_POINT('',(12.45,-7.82,-3.3));
#1086 = DIRECTION('',(-1.,0.,0.));
#1087 = DIRECTION('',(0.,1.,0.));
#1088 = AXIS2_PLACEMENT_3D('',#1085,#1086,#1087);
#1089 = PLANE('',#1088);
#1090 = ADVANCED_FACE('',(#1084),#1089,.T.);
#1091 = ORIENTED_EDGE('',*,*,#1080,.T.);
#1092 = ORIENTED_EDGE('',*,*,#999,.T.);
#1093 = ORIENTED_EDGE('',*,*,#1052,.F.);
#1094 = ORIENTED_EDGE('',*,*,#1025,.F.);
#1095 = EDGE_LOOP('',(#1091,#1092,#1093,#1094));
#1096 = FACE_OUTER_BOUND('',#1095,.T.);
#1097 = CARTESIAN_POINT('',(12.45,-7.42,-3.3));
#1098 = DIRECTION('',(0.,1.,0.));
#1099 = DIRECTION('',(1.,0.,0.));
#1100 = AXIS2_PLACEMENT_3D('',#1097,#1098,#1099);
#1101 = PLANE('',#1100);
#1102 = ADVANCED_FACE('',(#1096),#1101,.T.);
#1103 = ORIENTED_EDGE('',*,*,#1037,.T.);
#1104 = ORIENTED_EDGE('',*,*,#1059,.T.);
#1105 = ORIENTED_EDGE('',*,*,#987,.F.);
#1106 = ORIENTED_EDGE('',*,*,#1073,.F.);
#1107 = EDGE_LOOP('',(#1103,#1104,#1105,#1106));
#1108 = FACE_OUTER_BOUND('',#1107,.T.);
#1109 = CARTESIAN_POINT('',(12.45,-7.82,-3.3));
#1110 = DIRECTION('',(0.,-1.,0.));
#1111 = DIRECTION('',(1.,0.,0.));
#1112 = AXIS2_PLACEMENT_3D('',#1109,#1110,#1111);
#1113 = PLANE('',#1112);
#1114 = ADVANCED_FACE('',(#1108),#1113,.T.);
#1115 = CLOSED_SHELL('',(#1014,#1046,#1068,#1090,#1102,#1114));
#1116 = MANIFOLD_SOLID_BREP('',#1115);
#1117 = COLOUR_RGB('',0.8,0.8,0.78);
#1118 = FILL_AREA_STYLE_COLOUR('',#1117);
#1119 = FILL_AREA_STYLE('',(#1118));
#1120 = SURFACE_STYLE_FILL_AREA(#1119);
#1121 = SURFACE_SIDE_STYLE('',(#1120));
#1122 = SURFACE_STYLE_USAGE(.BOTH.,#1121);
#1123 = PRESENTATION_STYLE_ASSIGNMENT((#1122));
#1124 = STYLED_ITEM('color',(#1123),#1116);
#1125 = ADVANCED_BREP_SHAPE_REPRESENTATION('',(#18,#168,#326,#484,#642,#800,#958,#1116),#14);
#1126 = SHAPE_DEFINITION_REPRESENTATION(#9,#1125);
#1127 = MECHANICAL_DESIGN_GEOMETRIC_PRESENTATION_REPRESENTATION('',(#176,#334,#492,#650,#808,#966,#1124),#14);
ENDSEC;
END-ISO-10303-21;
